<svg width="129" height="42" viewBox="0 0 129 42" fill="none" xmlns="http://www.w3.org/2000/svg">
<g clip-path="url(#clip0_0_2317)">
<rect width="43" height="42" rx="12" fill="#E3DFFC"/>
<path fill-rule="evenodd" clip-rule="evenodd" d="M19.9177 8.84993C21.4838 8.58891 22.7454 8.74117 23.1804 8.84993C24.1593 8.95868 26.7042 9.82873 29.0534 12.4389C29.5972 12.9827 30.75 14.5923 31.011 16.6805C31.011 17.333 31.4025 18.6381 32.9687 18.6381H34.9263C35.3613 18.6381 36.1662 18.9644 35.9051 20.2695C35.1438 24.6198 31.2068 33.2552 21.5491 32.9942C17.1987 32.8855 8.23706 30.1883 7.19298 20.2695C7.08423 19.7257 7.12773 18.6381 8.17181 18.6381H11.7608C11.7608 16.0279 13.2834 13.4178 14.0447 12.4389C16.0024 9.82873 17.96 9.17621 19.9177 8.84993ZM21.5491 13.4178C17.8948 13.4178 16.5462 16.898 16.3287 18.6381H24.8118C26.6389 18.6381 26.6607 17.5506 26.4432 17.0068C25.3991 14.1356 22.7454 13.4178 21.5491 13.4178ZM16.3242 18.6382C16.7592 20.1608 18.086 23.2713 19.9132 23.5323C21.7403 23.7933 23.3064 23.7281 23.8285 23.206C24.3723 22.771 25.6556 22.2272 26.4387 23.5323L27.7438 24.8374C27.9613 25.1637 28.0048 26.012 26.4387 26.795C25.5686 27.3388 23.3064 28.4264 21.2183 28.4264C20.2395 28.4264 17.9555 28.1654 16.6504 27.1213C14.9103 25.925 11.4953 22.2924 11.7563 18.6382H16.3242Z" fill="#3E3997"/>
</g>
<path d="M65.922 11.8651C66.3727 11.8651 66.7367 12.0211 67.014 12.3331C67.2913 12.6277 67.43 13.0004 67.43 13.4511V22.8631C67.43 24.3017 67.118 25.5757 66.494 26.6851C65.8873 27.7944 65.0467 28.6611 63.972 29.2851C62.8973 29.9091 61.6493 30.2211 60.228 30.2211C58.8067 30.2211 57.55 29.9091 56.458 29.2851C55.3833 28.6611 54.534 27.7944 53.91 26.6851C53.3033 25.5757 53 24.3017 53 22.8631V13.4511C53 13.0004 53.156 12.6277 53.468 12.3331C53.78 12.0211 54.1787 11.8651 54.664 11.8651C55.0627 11.8651 55.418 12.0211 55.73 12.3331C56.0593 12.6277 56.224 13.0004 56.224 13.4511V22.8631C56.224 23.7297 56.406 24.4837 56.77 25.1251C57.1513 25.7491 57.6453 26.2344 58.252 26.5811C58.876 26.9277 59.5347 27.1011 60.228 27.1011C60.9733 27.1011 61.6667 26.9277 62.308 26.5811C62.9493 26.2344 63.4693 25.7491 63.868 25.1251C64.2667 24.4837 64.466 23.7297 64.466 22.8631V13.4511C64.466 13.0004 64.596 12.6277 64.856 12.3331C65.116 12.0211 65.4713 11.8651 65.922 11.8651Z" fill="#3E3997"/>
<path d="M72.97 11.8651C73.2127 11.8651 73.464 11.9344 73.724 12.0731C74.0014 12.1944 74.2094 12.3591 74.348 12.5671L80.666 22.2911L79.366 22.2391L85.84 12.5671C86.1694 12.0991 86.594 11.8651 87.114 11.8651C87.53 11.8651 87.9027 12.0124 88.232 12.3071C88.5614 12.6017 88.726 12.9831 88.726 13.4511V28.5051C88.726 28.9557 88.5787 29.3371 88.284 29.6491C87.9894 29.9437 87.5994 30.0911 87.114 30.0911C86.6287 30.0911 86.23 29.9437 85.918 29.6491C85.6234 29.3371 85.476 28.9557 85.476 28.5051V16.2591L86.49 16.4931L81.186 24.5791C81.03 24.7697 80.8307 24.9344 80.588 25.0731C80.3627 25.2117 80.1287 25.2724 79.886 25.2551C79.6607 25.2724 79.4267 25.2117 79.184 25.0731C78.9587 24.9344 78.768 24.7697 78.612 24.5791L73.646 16.7271L74.322 15.3491V28.5051C74.322 28.9557 74.1834 29.3371 73.906 29.6491C73.6287 29.9437 73.2647 30.0911 72.814 30.0911C72.3807 30.0911 72.0254 29.9437 71.748 29.6491C71.4707 29.3371 71.332 28.9557 71.332 28.5051V13.4511C71.332 13.0177 71.488 12.6451 71.8 12.3331C72.1294 12.0211 72.5194 11.8651 72.97 11.8651Z" fill="#3E3997"/>
<path d="M94.2728 11.8651C94.5154 11.8651 94.7668 11.9344 95.0268 12.0731C95.3041 12.1944 95.5121 12.3591 95.6508 12.5671L101.969 22.2911L100.669 22.2391L107.143 12.5671C107.472 12.0991 107.897 11.8651 108.417 11.8651C108.833 11.8651 109.205 12.0124 109.535 12.3071C109.864 12.6017 110.029 12.9831 110.029 13.4511V28.5051C110.029 28.9557 109.881 29.3371 109.587 29.6491C109.292 29.9437 108.902 30.0911 108.417 30.0911C107.931 30.0911 107.533 29.9437 107.221 29.6491C106.926 29.3371 106.779 28.9557 106.779 28.5051V16.2591L107.793 16.4931L102.489 24.5791C102.333 24.7697 102.133 24.9344 101.891 25.0731C101.665 25.2117 101.431 25.2724 101.189 25.2551C100.963 25.2724 100.729 25.2117 100.487 25.0731C100.261 24.9344 100.071 24.7697 99.9148 24.5791L94.9488 16.7271L95.6248 15.3491V28.5051C95.6248 28.9557 95.4861 29.3371 95.2088 29.6491C94.9314 29.9437 94.5674 30.0911 94.1168 30.0911C93.6834 30.0911 93.3281 29.9437 93.0508 29.6491C92.7734 29.3371 92.6348 28.9557 92.6348 28.5051V13.4511C92.6348 13.0177 92.7908 12.6451 93.1028 12.3331C93.4321 12.0211 93.8221 11.8651 94.2728 11.8651Z" fill="#3E3997"/>
<path d="M120.62 15.9731L115.003 29.1811C114.882 29.5104 114.691 29.7704 114.431 29.9611C114.189 30.1344 113.92 30.2211 113.625 30.2211C113.158 30.2211 112.811 30.0911 112.585 29.8311C112.36 29.5711 112.247 29.2504 112.247 28.8691C112.247 28.7131 112.274 28.5484 112.326 28.3751L118.8 12.8271C118.938 12.4804 119.146 12.2117 119.424 12.0211C119.718 11.8304 120.03 11.7524 120.36 11.7871C120.672 11.7871 120.958 11.8824 121.218 12.0731C121.495 12.2464 121.694 12.4977 121.816 12.8271L128.212 28.0631C128.298 28.2884 128.342 28.4964 128.342 28.6871C128.342 29.1551 128.186 29.5277 127.874 29.8051C127.579 30.0824 127.25 30.2211 126.886 30.2211C126.574 30.2211 126.288 30.1257 126.028 29.9351C125.785 29.7444 125.594 29.4844 125.456 29.1551L119.866 16.1291L120.62 15.9731ZM115.809 26.0091L117.24 23.0191H124.26L124.754 26.0091H115.809Z" fill="#3E3997"/>
<defs>
<clipPath id="clip0_0_2317">
<rect width="43" height="42" fill="white"/>
</clipPath>
</defs>
</svg>
